<?xml version="1.0" encoding="iso-8859-1"?>
<!-- Generator: Adobe Illustrator 18.0.0, SVG Export Plug-In . SVG Version: 6.00 Build 0)  -->
<!DOCTYPE svg PUBLIC "-//W3C//DTD SVG 1.1//EN" "http://www.w3.org/Graphics/SVG/1.1/DTD/svg11.dtd">
<svg version="1.1" id="_x31_" xmlns="http://www.w3.org/2000/svg" xmlns:xlink="http://www.w3.org/1999/xlink" x="0px" y="0px"
	 viewBox="0 0 512 512" style="enable-background:new 0 0 512 512;" xml:space="preserve">
<g>
	<rect style="fill:#E3C134;" width="512" height="512"/>
	<polygon style="opacity:0.1;fill:#231815;" points="512,279.295 512,512 183.81,512 78.49,406.68 146.79,415.23 152.115,406.935 
		98.97,353.79 99.687,322.66 101.99,295.065 176.385,369.455 343.705,111.05 	"/>
	<g>
		<g>
			<path style="fill:#E37E7D;" d="M369.355,429.29c33.88,1.865,55.851-17.14,60.255-21.555l-8.815-19.59
				c-4.41,4.405-24.41,19.52-51.44,14.695c-26.58-4.745-37.98-24.73-42.615-37.92c9.68,9.39,28.64,20.105,58.78,7.545
				c47.03-19.595,41.155-62.71,41.155-76.42l-16.66-0.985c0,28.005-13.715,48.99-40.17,49.97c-10.78-0.98-27.43-21.555-16.16-32.625
				c25-25,40.465-59.535,40.465-97.685s-15.465-72.685-40.465-97.685S294.15,76.57,256,76.57c-38.145,0-72.69,15.465-97.682,40.465
				c-25.005,25-40.465,59.535-40.465,97.685s15.46,72.685,40.465,97.685c11.27,11.07-5.385,31.645-16.163,32.625
				c-26.45-0.98-40.167-21.965-40.167-49.97l-16.657,0.985c0,13.71-5.88,56.825,41.15,76.42c30.14,12.56,49.103,1.845,58.785-7.545
				c-4.635,13.19-16.035,33.175-42.62,37.92c-27.025,4.825-47.028-10.29-51.435-14.695l-8.82,19.59
				c4.407,4.415,26.378,23.42,60.255,21.555c53.4-2.94,74.955-43.11,74.955-43.11c1.935,13.19,1.11,28.34-19.06,44.945
				c-21.195,17.455-44.112,13.945-50.122,12.26l1.023,19.645c6,1.68,40.75,7.92,64.23-6.3c39-23.6,42.33-66.63,42.33-66.63
				s3.33,43.03,42.33,66.63c23.48,14.22,58.23,7.98,64.235,6.3l1.015-19.645c-6.005,1.685-28.925,5.195-50.12-12.26
				c-20.17-16.605-20.995-31.755-19.06-44.945C294.4,386.18,315.955,426.35,369.355,429.29z"/>
			<path style="fill:#727171;" d="M200.06,207.37c0,6.82-5.525,12.35-12.345,12.35c-6.815,0-12.343-5.53-12.343-12.35
				c0-6.815,5.527-12.345,12.343-12.345C194.535,195.025,200.06,200.555,200.06,207.37z"/>
			<path style="fill:#727171;" d="M332.335,207.37c0,6.82-5.53,12.35-12.345,12.35c-6.82,0-12.35-5.53-12.35-12.35
				c0-6.815,5.53-12.345,12.35-12.345C326.805,195.025,332.335,200.555,332.335,207.37z"/>
			<path style="fill:#BF87A9;" d="M328.805,282.325c0,15.425-12.5,27.925-27.925,27.925h-76.42c-15.425,0-27.93-12.5-27.93-27.925
				l0,0c0-15.425,12.505-27.925,27.93-27.925h76.42C316.305,254.4,328.805,266.9,328.805,282.325L328.805,282.325z"/>
			<path style="fill:#F7D6E6;" d="M324.395,276.445c0,15.425-12.5,27.925-27.925,27.925h-76.425c-15.42,0-27.92-12.5-27.92-27.925
				l0,0c0-15.425,12.5-27.92,27.92-27.92h76.425C311.895,248.525,324.395,261.02,324.395,276.445L324.395,276.445z"/>
			<g>
				<path style="fill:#727171;" d="M224.46,283.795h66.135c4.055,0,7.345-3.29,7.345-7.35c0-4.055-3.29-7.345-7.345-7.345H224.46
					c-4.065,0-7.35,3.29-7.35,7.345C217.11,280.505,220.395,283.795,224.46,283.795"/>
			</g>
			<path style="opacity:0.06;fill:#231815;" d="M420.795,388.145c-4.41,4.405-24.41,19.52-51.44,14.695
				c-26.58-4.745-37.98-24.73-42.615-37.92c9.68,9.39,28.64,20.105,58.78,7.545c47.03-19.595,41.155-62.71,41.155-76.42
				l-16.66-0.985c0,28.005-13.715,48.99-40.17,49.97c-10.78-0.98-27.43-21.555-16.16-32.625c25-25,40.465-59.535,40.465-97.685
				s-15.465-72.685-40.465-97.685S294.15,76.57,256,76.57V390.1c0,0,3.33,43.03,42.33,66.63c23.48,14.22,58.23,7.98,64.235,6.3
				l1.015-19.645c-6.005,1.685-28.925,5.195-50.12-12.26c-20.17-16.605-20.995-31.755-19.06-44.945c0,0,21.555,40.17,74.955,43.11
				c33.88,1.865,55.851-17.14,60.255-21.555L420.795,388.145z"/>
		</g>
		<circle style="fill:#FFFFFF;" cx="181.835" cy="141.63" r="20.9"/>
	</g>
</g>
</svg>
